<svg width="220" height="220" viewBox="0 0 220 220" fill="none" xmlns="http://www.w3.org/2000/svg">
<path d="M92.8125 127.188H195.938C199.584 127.188 203.082 128.636 205.66 131.215C208.239 133.793 209.688 137.291 209.688 140.938V209.688H79.0625V140.938C79.0625 137.291 80.5112 133.793 83.0898 131.215C85.6684 128.636 89.1658 127.188 92.8125 127.188Z" fill="#EBA72E"/>
<path d="M18.3047 106.563C19.8318 106.563 21.2963 107.169 22.3761 108.249C23.4559 109.329 24.0625 110.793 24.0625 112.32C24.0638 111.487 24.246 110.664 24.5965 109.908C24.947 109.152 25.4574 108.481 26.0926 107.941C26.7277 107.401 27.4724 107.006 28.2752 106.783C29.0781 106.559 29.9199 106.512 30.7425 106.646C31.5651 106.779 32.349 107.09 33.0399 107.556C33.7308 108.022 34.3124 108.632 34.7443 109.345C35.1763 110.057 35.4484 110.855 35.5418 111.684C35.6353 112.512 35.5478 113.35 35.2855 114.141L30.9375 130.625H17.1875L12.8395 114.143C12.5506 113.277 12.4716 112.355 12.6091 111.453C12.7467 110.55 13.0968 109.694 13.6306 108.953C14.1645 108.213 14.8667 107.61 15.6794 107.194C16.4921 106.778 17.3919 106.562 18.3047 106.563Z" fill="#20754D"/>
<path d="M51.5625 168.438C43.9686 168.438 37.8125 162.281 37.8125 154.688C37.8125 147.094 43.9686 140.938 51.5625 140.938C59.1564 140.938 65.3125 147.094 65.3125 154.688C65.3125 162.281 59.1564 168.438 51.5625 168.438Z" fill="#D9DB5E"/>
<path d="M10.5532 143.473L12.0099 151.25L13.299 158.125L16.7579 176.58C17.0536 178.156 17.8911 179.58 19.1254 180.604C20.3597 181.628 21.9132 182.188 23.5169 182.187H25.8544C27.4582 182.188 29.0117 181.628 30.246 180.604C31.4803 179.58 32.3177 178.156 32.6134 176.58L38.6548 144.375L38.8224 143.473C39.1982 141.486 39.1308 139.441 38.6249 137.484C38.119 135.526 37.1871 133.705 35.8958 132.149C34.6045 130.593 32.9856 129.342 31.1547 128.484C29.3238 127.627 27.3262 127.184 25.3044 127.187H24.0669C22.0465 127.188 20.0509 127.633 18.2222 128.492C16.3934 129.351 14.7764 130.602 13.4862 132.157C12.196 133.712 11.2643 135.532 10.7573 137.488C10.2504 139.443 10.1807 141.487 10.5532 143.473Z" fill="#F78A25"/>
<path d="M189.062 96.25C189.062 96.25 195.938 117.471 209.688 110.397C209.688 110.397 199.375 135.154 161.562 124.544V96.25H189.062Z" fill="#95573A"/>
<path d="M99.6875 96.25C99.6875 96.25 92.8125 117.471 79.0625 110.397C79.0625 110.397 89.375 135.154 127.188 124.544V96.25H99.6875Z" fill="#95573A"/>
<path d="M195.938 175.312H92.8125V209.688H195.938V175.312Z" fill="#A36F58"/>
<path d="M106.562 127.188H92.8125V175.312H106.562V127.188Z" fill="#A36F58"/>
<path d="M195.938 127.188H182.188V175.312H195.938V127.188Z" fill="#A36F58"/>
<path d="M140.938 127.188L168.438 147.812V127.188H140.938Z" fill="#F7B030"/>
<path d="M147.812 127.188L120.312 147.812V127.188H147.812Z" fill="#F7B030"/>
<path d="M189.062 103.125C181.469 103.125 175.312 96.9689 175.312 89.375C175.312 81.7811 181.469 75.625 189.062 75.625C196.656 75.625 202.812 81.7811 202.812 89.375C202.812 96.9689 196.656 103.125 189.062 103.125Z" fill="#F0C6A4"/>
<path d="M99.6875 103.125C92.0936 103.125 85.9375 96.9689 85.9375 89.375C85.9375 81.7811 92.0936 75.625 99.6875 75.625C107.281 75.625 113.438 81.7811 113.438 89.375C113.438 96.9689 107.281 103.125 99.6875 103.125Z" fill="#F0C6A4"/>
<path d="M99.6875 79.0625C99.6875 54.3823 119.695 34.375 144.375 34.375C169.055 34.375 189.062 54.3823 189.062 79.0625V85.9375C189.062 110.618 169.055 130.625 144.375 130.625C119.695 130.625 99.6875 110.618 99.6875 85.9375V79.0625Z" fill="#F7CCA9"/>
<path d="M165 195.938H123.75V209.688H165V195.938Z" fill="#D49073"/>
<path d="M99.6875 58.4375H189.062L183.214 17.4973C182.617 13.3366 179.772 10.3125 176.45 10.3125H112.3C108.978 10.3125 106.131 13.3366 105.536 17.4973L99.6875 58.4375Z" fill="#D49073"/>
<path d="M99.6875 58.4375H189.062L187.099 44.6875H101.651L99.6875 58.4375Z" fill="#D13330"/>
<path d="M188.639 58.4375H100.111C97.0442 58.4375 94.0657 59.4625 91.6487 61.3496C89.2317 63.2368 87.5148 65.8778 86.7711 68.8527L85.9375 72.1875H202.812L201.979 68.8527C201.235 65.8778 199.518 63.2368 197.101 61.3496C194.684 59.4625 191.706 58.4375 188.639 58.4375Z" fill="#D49073"/>
<path d="M79.0625 168.438C71.4686 168.438 65.3125 162.281 65.3125 154.688C65.3125 147.094 71.4686 140.938 79.0625 140.938C86.6564 140.938 92.8125 147.094 92.8125 154.688C92.8125 162.281 86.6564 168.438 79.0625 168.438Z" fill="#764F85"/>
<path d="M92.8125 178.75C85.2186 178.75 79.0625 172.594 79.0625 165C79.0625 157.406 85.2186 151.25 92.8125 151.25C100.406 151.25 106.562 157.406 106.562 165C106.562 172.594 100.406 178.75 92.8125 178.75Z" fill="#FA730A"/>
<path d="M65.3125 178.75C57.7186 178.75 51.5625 172.594 51.5625 165C51.5625 157.406 57.7186 151.25 65.3125 151.25C72.9064 151.25 79.0625 157.406 79.0625 165C79.0625 172.594 72.9064 178.75 65.3125 178.75Z" fill="#FFB632"/>
<path d="M37.8125 178.75C30.2186 178.75 24.0625 172.594 24.0625 165C24.0625 157.406 30.2186 151.25 37.8125 151.25C45.4064 151.25 51.5625 157.406 51.5625 165C51.5625 172.594 45.4064 178.75 37.8125 178.75Z" fill="#D13330"/>
<path d="M17.1875 209.688H99.6875L106.562 168.438H10.3125L17.1875 209.688Z" fill="#B37A60"/>
<path d="M12.6027 182.188L17.1874 209.688H99.6874L104.272 182.188H12.6027Z" fill="#95573A"/>
<path d="M209.688 213.125H17.1875C16.3737 213.125 15.5863 212.836 14.9654 212.31C14.3444 211.784 13.9302 211.055 13.7964 210.253L6.92143 169.003C6.83937 168.51 6.86555 168.006 6.99818 167.524C7.13081 167.043 7.36671 166.596 7.68944 166.215C8.01218 165.835 8.414 165.528 8.867 165.319C9.31999 165.109 9.81326 165 10.3125 165H11.0911L7.17323 144.105C6.58929 140.984 6.8808 137.762 8.01544 134.796C9.15009 131.83 11.0836 129.236 13.6018 127.301L9.57819 115.231C8.94745 113.346 8.9446 111.308 9.57005 109.422C10.1955 107.535 11.4156 105.903 13.0473 104.769C14.6791 103.634 16.6345 103.06 18.6205 103.131C20.6065 103.201 22.5159 103.914 24.0625 105.162C25.6096 103.916 27.5186 103.205 29.5036 103.135C31.4887 103.065 33.443 103.64 35.074 104.774C36.7049 105.908 37.9248 107.539 38.5508 109.424C39.1769 111.309 39.1755 113.346 38.5469 115.231L34.7617 126.586C37.0216 128.073 38.898 130.073 40.238 132.423C41.5781 134.773 42.3439 137.407 42.4729 140.109C46.1225 137.827 50.4965 137 54.7272 137.793C58.9579 138.585 62.7361 140.939 65.3125 144.387C67.8975 140.939 71.6823 138.586 75.9185 137.793C76.489 134.76 77.8636 131.935 79.8988 129.614C81.934 127.292 84.5551 125.56 87.4883 124.598C87.0775 124.334 86.6779 124.07 86.3006 123.804C78.7785 118.508 76.004 111.994 75.8893 111.719C75.6183 111.068 75.5538 110.35 75.7045 109.662C75.8551 108.974 76.2136 108.348 76.7315 107.87C77.2494 107.393 77.9017 107.085 78.5999 106.991C79.2981 106.896 80.0086 107.018 80.6352 107.34C82.1713 108.131 86.4566 110.336 91.3825 104.416C88.8689 103.03 86.7429 101.036 85.1987 98.6165C83.6545 96.1969 82.7414 93.4288 82.5429 90.5652C82.3444 87.7017 82.8669 84.8341 84.0625 82.2245C85.2581 79.615 87.0888 77.3467 89.3871 75.6272H85.9375C85.4152 75.6271 84.8997 75.5081 84.4302 75.279C83.9607 75.0499 83.5497 74.7169 83.2282 74.3051C82.9067 73.8934 82.6833 73.4138 82.5749 72.9028C82.4666 72.3918 82.4761 71.8628 82.6027 71.3561L83.4368 68.0195C84.2192 64.8751 85.8759 62.0165 88.2154 59.7745C90.5548 57.5324 93.4813 55.9987 96.6561 55.3506L102.133 17.0113C102.972 11.1379 107.25 6.875 112.301 6.875H176.449C181.5 6.875 185.778 11.1379 186.617 17.0109L192.094 55.3502C195.269 55.9983 198.195 57.5321 200.535 59.7742C202.874 62.0163 204.531 64.875 205.313 68.0195L206.147 71.3543C206.274 71.8611 206.283 72.39 206.175 72.901C206.067 73.4119 205.843 73.8914 205.522 74.3031C205.2 74.7148 204.789 75.0478 204.32 75.2769C203.85 75.5059 203.335 75.625 202.813 75.625H199.363C201.665 77.3471 203.498 79.6195 204.694 82.2339C205.89 84.8483 206.41 87.7211 206.207 90.5888C206.004 93.4566 205.085 96.2275 203.533 98.6477C201.981 101.068 199.847 103.06 197.325 104.441C199.507 107.142 203.074 109.934 208.115 107.34C208.741 107.018 209.452 106.896 210.15 106.991C210.848 107.085 211.501 107.393 212.019 107.87C212.536 108.348 212.895 108.974 213.046 109.662C213.196 110.35 213.132 111.068 212.861 111.719C212.754 111.977 210.157 118.078 203.193 123.265C202.556 123.738 201.908 124.176 201.256 124.597C204.703 125.724 207.707 127.91 209.838 130.844C211.97 133.778 213.12 137.311 213.125 140.938V209.688C213.125 210.599 212.763 211.474 212.118 212.118C211.474 212.763 210.599 213.125 209.688 213.125ZM127.188 206.25H161.563V199.375H127.188V206.25ZM120.313 206.25V195.938C120.313 195.026 120.675 194.151 121.319 193.507C121.964 192.862 122.838 192.5 123.75 192.5H165C165.912 192.5 166.786 192.862 167.431 193.507C168.075 194.151 168.438 195.026 168.438 195.938V206.25H192.5V178.75H108.329L103.746 206.25H120.313ZM192.5 171.875V130.625H185.625V171.875H192.5ZM109.954 169.003L109.475 171.875H140.938V136.641L122.375 150.562C121.864 150.946 121.257 151.179 120.621 151.236C119.985 151.293 119.346 151.173 118.775 150.887C118.204 150.602 117.724 150.163 117.388 149.62C117.053 149.077 116.875 148.451 116.875 147.812V130.155C114.594 130.439 112.299 130.589 110 130.604C110 130.604 110.043 168.455 109.954 169.003ZM134.328 133.004C130.673 132.225 127.123 131.02 123.75 129.413V140.938L134.328 133.004ZM144.375 127.188C155.311 127.175 165.796 122.825 173.53 115.092C181.263 107.359 185.613 96.8739 185.625 85.9375V75.625H103.125V85.9375C103.137 96.8739 107.487 107.359 115.22 115.092C122.954 122.825 133.439 127.175 144.375 127.188ZM154.422 133.004L165 140.938V129.413C161.627 131.02 158.077 132.225 154.422 133.004ZM171.875 130.156V147.812C171.875 148.451 171.697 149.077 171.362 149.62C171.026 150.163 170.546 150.602 169.975 150.887C169.404 151.173 168.765 151.293 168.129 151.236C167.493 151.179 166.886 150.946 166.375 150.562L147.813 136.641V171.875H178.75V130.6C176.452 130.585 174.156 130.437 171.875 130.156ZM92.8125 154.688C90.0785 154.691 87.4573 155.778 85.524 157.711C83.5907 159.645 82.5032 162.266 82.5 165H103.125C103.122 162.266 102.034 159.645 100.101 157.711C98.1678 155.778 95.5466 154.691 92.8125 154.688ZM103.125 151.259V130.625H96.25V148.158C98.7437 148.668 101.092 149.728 103.125 151.259ZM20.0995 206.25H96.7755L100.213 185.625H16.662L20.0995 206.25ZM15.516 178.75H101.359L102.505 171.875H14.3701L15.516 178.75ZM22.0645 158.125H16.7974L18.0864 165H20.625C20.6235 162.633 21.1136 160.292 22.0645 158.125ZM20.625 112.32C20.624 111.705 20.3792 111.116 19.9443 110.681C19.5094 110.246 18.9198 110.001 18.3047 110C17.9367 110 17.5739 110.087 17.2463 110.254C16.9187 110.422 16.6356 110.665 16.4204 110.964C16.2052 111.262 16.0642 111.608 16.0088 111.971C15.9535 112.335 15.9855 112.707 16.1021 113.056L19.8434 124.28C20.1012 124.215 20.3633 124.155 20.6263 124.101L20.625 112.32ZM31.7054 110.963C31.4914 110.663 31.2085 110.419 30.8804 110.251C30.5523 110.084 30.1887 109.998 29.8203 110C29.2053 110.001 28.6157 110.246 28.1808 110.681C27.7458 111.116 27.5011 111.705 27.5 112.32V123.894C27.7911 123.93 28.0801 123.975 28.3671 124.026L32.0242 113.055C32.1425 112.706 32.1753 112.334 32.1199 111.971C32.0644 111.607 31.9222 111.262 31.7054 110.964V110.963ZM28.1239 137.5H35.0282C34.3174 135.49 33.0008 133.749 31.2598 132.518C29.5188 131.286 27.4389 130.625 25.3065 130.625H24.0668C22.5515 130.625 21.0549 130.959 19.6833 131.603C18.3117 132.247 17.0989 133.186 16.1312 134.352C15.1635 135.518 14.4647 136.883 14.0844 138.349C13.7041 139.816 13.6517 141.349 13.9309 142.838L15.5083 151.25H24.6864C25.4095 151.25 26.114 151.479 26.6987 151.904C28.9193 150.012 31.5862 148.719 34.4468 148.146L35.1541 144.375H28.1239C27.2122 144.375 26.3379 144.013 25.6933 143.368C25.0486 142.724 24.6864 141.849 24.6864 140.938C24.6864 140.026 25.0486 139.151 25.6933 138.507C26.3379 137.862 27.2122 137.5 28.1239 137.5ZM37.8125 154.688C35.0785 154.691 32.4573 155.778 30.524 157.711C28.5907 159.645 27.5032 162.266 27.5 165H48.125C48.1218 162.266 47.0343 159.645 45.101 157.711C43.1678 155.778 40.5466 154.691 37.8125 154.688ZM51.5625 144.375C49.9254 144.376 48.3119 144.766 46.8558 145.515C45.3997 146.263 44.143 147.348 43.1897 148.679C46.5291 149.785 49.4505 151.886 51.5625 154.7C53.6745 151.886 56.596 149.785 59.9354 148.679C58.9821 147.348 57.7253 146.263 56.2693 145.515C54.8132 144.766 53.1997 144.376 51.5625 144.375ZM65.3125 154.688C62.5785 154.691 59.9573 155.778 58.024 157.711C56.0907 159.645 55.0032 162.266 55 165H75.625C75.6219 162.266 74.5343 159.645 72.6011 157.711C70.6678 155.778 68.0466 154.691 65.3125 154.688ZM79.0625 144.375C77.4254 144.376 75.8119 144.766 74.3558 145.515C72.8997 146.263 71.643 147.348 70.6897 148.679C74.0291 149.785 76.9505 151.886 79.0625 154.7C81.1745 151.886 84.096 149.785 87.4354 148.679C86.4821 147.348 85.2253 146.263 83.7693 145.515C82.3132 144.766 80.6997 144.376 79.0625 144.375ZM82.9435 137.947C85.2733 138.487 87.4642 139.509 89.375 140.947V131.216C87.8522 131.759 86.4773 132.65 85.3606 133.819C84.2438 134.987 83.416 136.401 82.9435 137.947ZM86.6315 115.106C91.1634 119.643 99.6824 124.864 114.346 123.514C108.643 118.95 104.046 113.155 100.9 106.562H99.6875C99.248 106.562 98.814 106.541 98.3826 106.508C95.0001 111.479 90.9649 114.396 86.6315 115.106ZM89.375 89.375C89.3785 91.8553 90.2744 94.2515 91.899 96.1256C93.5236 97.9997 95.7685 99.2265 98.2232 99.5818C96.912 95.1524 96.2474 90.5569 96.25 85.9375V79.6538C94.241 80.3666 92.5018 81.6836 91.2709 83.4241C90.04 85.1646 89.3778 87.2433 89.375 89.375ZM179.811 17.9833C179.472 15.6093 177.996 13.75 176.449 13.75H112.301C110.754 13.75 109.278 15.6093 108.939 17.9837L105.617 41.25H183.133L179.811 17.9833ZM184.117 48.125H104.633L103.651 55H185.099L184.117 48.125ZM188.64 61.875H100.11C97.9772 61.8727 95.896 62.5329 94.1543 63.7645C92.4125 64.996 91.0963 66.7381 90.3874 68.75H198.363C197.654 66.7381 196.338 64.996 194.596 63.7645C192.854 62.5329 190.773 61.8727 188.64 61.875ZM199.375 89.375C199.372 87.2433 198.71 85.1646 197.479 83.4241C196.248 81.6836 194.509 80.3666 192.5 79.6538V85.9375C192.503 90.5569 191.838 95.1524 190.527 99.5818C192.982 99.2265 195.226 97.9997 196.851 96.1256C198.476 94.2515 199.372 91.8553 199.375 89.375ZM202.18 115.11C197.823 114.415 193.758 111.498 190.364 106.508C189.934 106.541 189.5 106.562 189.062 106.562H187.85C184.703 113.157 180.105 118.953 174.4 123.518C189.173 124.904 197.68 119.668 202.18 115.11ZM206.25 140.938C206.247 138.806 205.585 136.727 204.354 134.987C203.123 133.246 201.384 131.929 199.375 131.216V206.25H206.25V140.938Z" fill="black"/>
<path d="M127.188 89.375C125.289 89.375 123.75 87.836 123.75 85.9375C123.75 84.039 125.289 82.5 127.188 82.5C129.086 82.5 130.625 84.039 130.625 85.9375C130.625 87.836 129.086 89.375 127.188 89.375Z" fill="black"/>
<path d="M161.562 89.375C159.664 89.375 158.125 87.836 158.125 85.9375C158.125 84.039 159.664 82.5 161.562 82.5C163.461 82.5 165 84.039 165 85.9375C165 87.836 163.461 89.375 161.562 89.375Z" fill="black"/>
</svg>
