<svg width="318" height="272" viewBox="0 0 318 272" fill="none" xmlns="http://www.w3.org/2000/svg">
<g clip-path="url(#clip0)">
<path d="M317.926 252.708L292.943 134.977C292.694 133.802 291.842 132.784 290.62 132.204L227.74 102.289C226.923 101.9 226.009 101.745 225.11 101.805L236.55 228.034L236.167 228.181L311.421 257.058C312.033 257.292 312.684 257.408 313.332 257.408C314.357 257.408 315.374 257.12 316.209 256.56C317.574 255.649 318.234 254.165 317.926 252.708Z" fill="#44C868"/>
<path d="M159 130.887L94.6891 102.236C93.9183 101.892 93.0637 101.752 92.2221 101.8C92.445 101.789 92.6693 101.79 92.8916 101.805L81.4517 228.034L157.089 257.059C157.7 257.292 158.351 257.409 159 257.409V130.887Z" fill="#44C868"/>
<path d="M92.8909 101.805C91.9922 101.746 91.0773 101.9 90.2612 102.289L27.3797 132.203C26.1586 132.784 25.3064 133.801 25.0574 134.977L0.0750764 252.708C-0.234229 254.165 0.426616 255.648 1.79116 256.561C2.62778 257.12 3.64327 257.409 4.66807 257.409C5.31588 257.409 5.9674 257.293 6.57918 257.059L81.4236 228.339L92.8909 101.805Z" fill="#4CE166"/>
<path d="M225.109 101.803C224.491 101.844 223.879 101.985 223.312 102.238L159 130.888V257.41C159 257.41 159 257.41 159.001 257.41C159.65 257.41 160.302 257.294 160.912 257.06L236.55 228.036L225.109 101.803Z" fill="#4CE166"/>
<path d="M17.4863 170.655L12.4114 194.572L87.5602 160.622L89.3048 141.37L89.5942 138.177L17.4863 170.655Z" fill="#FFDB56"/>
<path d="M88.2364 153.156L87.56 160.622L12.4113 194.572L0.0750764 252.708C-0.234229 254.165 0.426616 255.648 1.79116 256.561C2.62778 257.12 3.64327 257.409 4.66807 257.409C5.31588 257.409 5.9674 257.293 6.57918 257.059L81.4236 228.339L88.2364 153.156Z" fill="#A8EEFC"/>
<path d="M159.019 146.668L89.5941 138.177L87.5601 160.622L159 253.42V219.676L116.37 162.259L159.019 166.623V146.668Z" fill="#FFBB24"/>
<path d="M285.67 129.849L255.463 115.478L226.867 121.193L227.224 125.144L228.637 140.727L285.67 129.849Z" fill="#FFBB24"/>
<path d="M231.173 168.713L228.465 138.83L226.867 121.193L159.019 146.668V166.623L203.338 150.138L231.173 168.713Z" fill="#FFDB56"/>
<path d="M317.925 252.708L311.65 223.136L228.637 140.727L231.173 168.713L316.307 256.486C317.601 255.569 318.227 254.128 317.925 252.708Z" fill="#FFBB24"/>
<path d="M159.299 14.5908C123.299 14.5908 94.0098 39.6223 94.0098 70.3902C94.0098 89.4228 104.574 109.857 125.41 131.124C140.713 146.744 155.808 156.791 156.443 157.211C157.284 157.767 158.292 158.045 159.3 158.045C160.307 158.045 161.315 157.767 162.156 157.211C162.791 156.791 177.887 146.744 193.19 131.124C214.026 109.857 224.59 89.4234 224.59 70.3902C224.589 39.6223 195.3 14.5908 159.299 14.5908ZM183.479 70.3897C183.479 81.8021 172.653 91.0543 159.299 91.0543C145.946 91.0543 135.12 81.8026 135.12 70.3897C135.12 58.9768 145.946 49.7251 159.299 49.7251C172.653 49.7251 183.479 58.9774 183.479 70.3897Z" fill="#FF4A4A"/>
<path d="M159.299 14.5908C156.446 14.5908 153.635 14.7491 150.877 15.0541C182.915 18.5959 207.746 42.0607 207.746 70.3902C207.746 89.4228 197.182 109.857 176.346 131.124C166.505 141.169 156.757 148.903 150.878 153.261C154.141 155.679 156.217 157.061 156.443 157.211C157.284 157.767 158.291 158.045 159.299 158.045C160.307 158.045 161.315 157.767 162.156 157.211C162.791 156.791 177.886 146.744 193.19 131.124C214.025 109.857 224.59 89.4234 224.59 70.3902C224.588 39.6223 195.299 14.5908 159.299 14.5908Z" fill="#E7343F"/>
<path d="M160.912 257.059L189.039 246.266L159 219.676V257.409C159 257.409 159 257.409 159.001 257.409C159.65 257.409 160.302 257.293 160.912 257.059Z" fill="#FFDB56"/>
<path d="M292.942 134.977C292.693 133.802 291.841 132.784 290.62 132.203L285.67 129.848L228.636 140.727L311.649 223.135L292.942 134.977Z" fill="#1EA4E9"/>
<path d="M158.999 257.409C159 257.409 159 257.409 158.999 257.409V253.42L87.5599 160.622L81.4502 228.035L157.088 257.059C157.698 257.293 158.35 257.409 158.999 257.409Z" fill="#1EA4E9"/>
</g>
<defs>
<clipPath id="clip0">
<rect width="318" height="272" fill="white"/>
</clipPath>
</defs>
</svg>
