<svg width="249" height="250" viewBox="0 0 249 250" fill="none" xmlns="http://www.w3.org/2000/svg">
<path d="M87.4458 196L50.2978 216.344C48.1179 217.537 46.1588 219.004 44.3359 220.603C65.9942 238.938 93.9527 250 124.5 250C154.821 250 182.601 239.103 204.199 221.019C202.207 219.33 200.046 217.811 197.649 216.613L157.871 196.646C152.731 194.066 149.484 188.792 149.484 183.023V167.353C150.603 166.075 151.88 164.434 153.248 162.495C158.669 154.806 162.771 146.349 165.613 137.476C170.715 135.896 174.474 131.165 174.474 125.542V108.816C174.474 105.136 172.843 101.849 170.311 99.5468V75.3676C170.311 75.3676 175.258 37.7402 124.505 37.7402C73.7508 37.7402 78.6979 75.3676 78.6979 75.3676V99.5468C76.161 101.849 74.5354 105.136 74.5354 108.816V125.542C74.5354 129.948 76.8422 133.825 80.2953 136.066C84.4578 154.259 95.3575 167.353 95.3575 167.353V182.636C95.3528 188.203 92.3178 193.33 87.4458 196Z" fill="#E7ECED"/>
<path d="M126.628 0.018614C57.8805 -1.16063 1.19308 53.8394 0.0185518 122.863C-0.64858 162 16.725 197.174 44.3875 220.566C46.1963 218.981 48.1366 217.528 50.2931 216.349L87.441 196.004C92.313 193.335 95.348 188.207 95.348 182.632V167.349C95.348 167.349 84.4436 154.254 80.2858 136.061C76.8374 133.821 74.5259 129.948 74.5259 125.537V108.811C74.5259 105.132 76.1562 101.844 78.6885 99.5422V75.363C78.6885 75.363 73.7413 37.7356 124.495 37.7356C175.249 37.7356 170.302 75.363 170.302 75.363V99.5422C172.839 101.844 174.464 105.132 174.464 108.811V125.537C174.464 131.16 170.706 135.891 165.604 137.471C162.761 146.344 158.66 154.802 153.238 162.49C151.871 164.429 150.593 166.071 149.475 167.349V183.019C149.475 188.787 152.721 194.066 157.861 196.641L197.64 216.608C200.027 217.806 202.183 219.321 204.17 221.004C230.997 198.542 248.328 164.957 248.972 127.137C250.156 58.113 195.38 1.19786 126.628 0.018614Z" fill="#556080"/>
</svg>
