<svg id="Capa_1" enable-background="new 0 0 511.957 511.957" height="512" viewBox="0 0 511.957 511.957" width="512" xmlns="http://www.w3.org/2000/svg"><g><path d="m212.023 252.634-2.527 20.67-4.094 33.481c-1.605 13.128-9.739 24.554-21.618 30.368-41.278 20.203-67.448 62.148-67.448 108.104v40.273c0 10.453 8.474 18.926 18.926 18.926h206.805c10.453 0 18.926-8.474 18.926-18.926v-40.273c0-45.957-26.17-87.902-67.448-108.104-11.879-5.814-20.013-17.24-21.618-30.368l-4.093-33.479-2.528-20.672z" fill="#dd636e"/><path d="m293.545 337.154c-11.879-5.814-20.013-17.24-21.619-30.368l-4.093-33.479-2.528-20.672h-53.283l-.856 7h34.121l2.528 20.672 4.093 33.479c1.605 13.128 9.739 24.554 21.618 30.368 41.278 20.203 67.448 62.148 67.448 108.104v40.273c0 4.523-1.591 8.671-4.238 11.926h5.329c10.453 0 18.926-8.474 18.926-18.926v-40.273c.002-45.956-26.168-87.901-67.446-108.104z" fill="#da4a54"/><path d="m271.66 304.61-6.355-51.975h-53.283l-6.355 51.975c21.998 16.774 43.996 16.774 65.993 0z" fill="#e2a770"/><path d="m238.664 277.612c-39.171 0-70.926-31.755-70.926-70.926v-45.457-58.327h141.852v31.947 71.837c0 39.171-31.755 70.926-70.926 70.926z" fill="#f1d0a5"/><path d="m167.738 102.902v76.57c3.117.019 6.288-.259 9.486-.899 25.481-5.105 49.175-14.5 71.195-27.919 3.604-2.196 7.443-3.897 11.409-5.079 11.744-3.5 23.506 5.533 23.506 17.788v43.323c0 34.684-24.902 63.533-57.798 69.693 4.256.797 8.64 1.233 13.128 1.233 39.171 0 70.926-31.754 70.926-70.926v-103.784z" fill="#f1b986"/><path d="m297.9 130.284c-2.417-1.202-4.837-2.302-7.258-3.288-13.812-5.62-29.489-4.029-42.222 3.731-22.019 13.419-45.714 22.814-71.195 27.919-28.793 5.768-55.642-16.361-55.642-45.726v-26.3c0-53.037 51.26-91.219 101.961-75.654 15.007 4.607 29.465 11.702 43.414 21.098 4.169 2.808 9.766 1.829 12.872-2.122.173-.22.347-.438.521-.655 21.346-26.454 64.233-10.839 64.233 23.152v48.741c0 23.987-25.208 39.787-46.684 29.104z" fill="#3d6b73"/><g><path d="m293.056 19.231c12.172 5.434 21.555 17.31 21.555 33.208v48.741c0 12.92-7.319 23.455-17.423 28.766.237.116.475.221.712.339 21.477 10.682 46.685-5.118 46.685-29.104v-48.742c-.001-28.103-29.309-43.617-51.529-33.208z" fill="#2e5459"/></g><path d="m243.899 252.481h-10.469c-13.91 0-25.187-11.276-25.187-25.187 0-13.91 11.276-25.187 25.187-25.187h10.469c13.91 0 25.187 11.276 25.187 25.187-.001 13.91-11.277 25.187-25.187 25.187z" fill="#dd636e"/><path d="m235.488 227.294c-8.249-2.597-19.11-1.357-27.237.291.157 13.775 11.367 24.895 25.179 24.895h10.469c13.91 0 25.187-11.276 25.187-25.187 0-2.615-.399-5.138-1.139-7.509-9.067 6.029-20.977 11.126-32.459 7.51z" fill="#f9f6f6"/><path d="m387.747 504.457h-61.009l-7.874-105.098h76.757z" fill="#cbe2ff"/><path d="m380.188 399.359-7.874 105.098h15.433l7.874-105.098z" fill="#bed8fb"/><path d="m326.738 504.457h61.009l4.686-62.54c-11.127 3.784-22.958 4.9-31.44-1.937-12.704-10.241-28.704-8.167-39.451-4.885z" fill="#f9f6f6"/><path d="m376.775 444.92-4.461 59.538h15.433l4.686-62.54c-5.205 1.769-10.56 2.94-15.658 3.002z" fill="#efe7e4"/><path d="m238.734 396.556c-13.494 0-25.568 6.077-33.636 15.644-9.431 11.183-1.09 28.335 13.538 28.335h40.173c14.975 0 22.917-17.624 13.069-28.906-8.06-9.237-19.92-15.073-33.144-15.073z" fill="#f9f6f6"/><g><path d="m221.681 179.701c0-4.143-3.358-7.5-7.5-7.5h-8.591c-4.142 0-7.5 3.357-7.5 7.5s3.358 7.5 7.5 7.5h8.591c4.142 0 7.5-3.357 7.5-7.5z"/><path d="m279.238 179.701c0-4.143-3.357-7.5-7.5-7.5h-8.59c-4.143 0-7.5 3.357-7.5 7.5s3.357 7.5 7.5 7.5h8.59c4.142 0 7.5-3.357 7.5-7.5z"/><path d="m233.43 259.981h10.469c18.023 0 32.687-14.663 32.687-32.687 0-17.956-14.597-32.687-32.687-32.687h-10.469c-18.023 0-32.687 14.663-32.687 32.687 0 17.948 14.601 32.687 32.687 32.687zm10.469-15h-10.469c-7.467 0-13.854-4.659-16.444-11.216 6.662-.785 12.291-.563 16.25.683 3.263 1.028 6.667 1.538 10.183 1.538 5.59 0 11.458-1.293 17.475-3.846-2.114 7.4-8.924 12.841-16.995 12.841zm-10.469-35.373h10.469c5.852 0 11.034 2.869 14.255 7.261-6.191 3.187-13.606 5.415-20.414 3.271-5.423-1.706-12.013-2.23-19.674-1.573 3.047-5.342 8.786-8.959 15.364-8.959z"/><path d="m403.101 399.919c.155-2.081-.562-4.133-1.981-5.662s-3.411-2.398-5.498-2.398h-38.82c-12.297-26.741-33.462-48.472-59.959-61.441-9.638-4.717-16.169-13.891-17.472-24.542l-3.675-30.06c17.164-9.197 30.725-24.675 37.262-44.013 1.326-3.924-.78-8.181-4.704-9.507-3.92-1.321-8.18.779-9.507 4.704-8.716 25.787-32.861 43.112-60.083 43.112-34.973 0-63.425-28.452-63.425-63.425v-40.122c19.163-2.573 50.255-13.082 77.083-29.433 10.862-6.619 24.131-7.811 35.495-3.188 2.186.889 4.455 1.917 6.743 3.055 2.442 1.214 4.965 2.152 7.53 2.836v59.709c0 4.143 3.357 7.5 7.5 7.5s7.5-3.357 7.5-7.5v-58.686c5.586-.699 11.057-2.591 16.051-5.685 11.862-7.348 18.943-20.056 18.943-33.993v-48.74c0-18.854-11.537-35.109-29.392-41.415-17.607-6.217-36.518-.897-48.169 13.542-.197.243-.394.49-.589.739-.709.899-1.907 1.131-2.786.538-14.677-9.886-29.953-17.304-45.404-22.048-27.548-8.458-57.376-2.591-79.79 15.692-3.21 2.618-3.69 7.342-1.072 10.552 2.62 3.212 7.343 3.689 10.552 1.071 18.522-15.107 43.162-19.959 65.907-12.976 14.038 4.31 27.975 11.089 41.426 20.149 7.346 4.946 17.433 3.321 22.956-3.707 8.462-10.7 20.776-13.363 31.973-9.409 9.372 3.31 19.387 12.211 19.387 27.271v48.74c0 8.708-4.427 16.648-11.842 21.242-7.337 4.544-16.31 4.973-24.003 1.147-2.624-1.306-5.239-2.49-7.771-3.52-15.748-6.407-34.048-4.811-48.952 4.273-21.401 13.042-44.537 22.115-68.765 26.97-11.473 2.298-23.254-.646-32.326-8.081-9.116-7.471-14.344-18.511-14.344-30.291v-26.299c0-12.372 2.997-24.045 8.907-34.694 2.01-3.622.704-8.188-2.918-10.197-3.623-2.009-8.187-.704-10.197 2.918-7.06 12.721-10.792 27.235-10.792 41.974v26.301c0 16.293 7.23 31.562 19.836 41.893 7.685 6.299 16.779 10.258 26.32 11.662v40.211c0 29.859 16.777 55.867 41.396 69.111l-3.678 30.078c-1.302 10.651-7.833 19.825-17.471 24.542-21.515 10.53-39.589 26.839-52.269 47.161-12.68 20.323-19.382 43.727-19.382 67.68v40.273c0 14.571 11.855 26.426 26.426 26.426h84.248c4.142 0 7.5-3.357 7.5-7.5s-3.358-7.5-7.5-7.5h-84.248c-6.3 0-11.426-5.126-11.426-11.426v-40.273c0-21.144 5.916-41.801 17.108-59.739s27.146-32.334 46.137-41.629c11.34-5.55 19.749-15.291 23.667-26.978 9.211 5.135 18.564 7.709 27.917 7.709s18.706-2.574 27.917-7.708c3.918 11.687 12.328 21.429 23.667 26.978 21.283 10.417 38.67 27.238 49.808 47.969h-21.192c-2.087 0-4.079.869-5.498 2.398s-2.137 3.581-1.981 5.662c.843 11.252 6.794 90.684 7.27 97.038h-69.159c-4.142 0-7.5 3.357-7.5 7.5s3.358 7.5 7.5 7.5h138.251c3.925 0 7.186-3.025 7.479-6.939 1.57-20.908 5.208-69.469 7.878-105.102zm-189.45-98.803 2.366-19.352c7.175 2.168 14.775 3.347 22.648 3.347 7.82 0 15.43-1.17 22.648-3.345l2.366 19.35c-16.98 11.502-33.049 11.502-50.028 0zm173.887 105.743-2.198 29.343c-8.629 2.176-15.229 1.496-19.641-2.06-11.865-9.566-25.737-10.356-37.335-8.373l-1.417-18.91zm-53.84 90.098-4.206-56.14c8.521-1.681 18.693-1.529 26.795 5.003 5.492 4.426 12.176 6.642 19.985 6.642 2.516 0 5.156-.243 7.903-.704l-3.386 45.199z"/><path d="m258.811 448.035c9.886 0 18.566-5.586 22.653-14.579 4.103-9.026 2.595-19.279-3.934-26.759-9.786-11.211-23.927-17.641-38.796-17.641-15.208 0-29.557 6.673-39.369 18.309-6.193 7.344-7.504 17.361-3.422 26.143 4.165 8.961 12.861 14.527 22.694 14.527zm-49.266-20.849c-1.618-3.481-1.137-7.275 1.287-10.15 6.956-8.248 17.125-12.979 27.902-12.979 10.537 0 20.559 4.558 27.496 12.504 2.65 3.037 3.24 7.032 1.578 10.689-1.646 3.622-5.01 5.785-8.997 5.785h-40.174c-3.991 0-7.39-2.186-9.092-5.849z"/><path d="m221.4 475.934h34.528c4.143 0 7.5-3.357 7.5-7.5s-3.357-7.5-7.5-7.5h-34.528c-4.142 0-7.5 3.357-7.5 7.5s3.358 7.5 7.5 7.5z"/></g></g></svg>