<svg width="237" height="237" viewBox="0 0 237 237" fill="none" xmlns="http://www.w3.org/2000/svg">
<path d="M125.906 70.3594H214.781V129.609H125.906V70.3594Z" fill="#AD6643"/>
<path d="M11.1094 211.078H225.891V225.891H11.1094V211.078Z" fill="#AD6643"/>
<path d="M29.625 129.609H66.6562V151.828H29.625V129.609Z" fill="#3397E8"/>
<path d="M29.625 166.641H96.2812V188.859H29.625V166.641Z" fill="#E9EEF2"/>
<path d="M11.1094 188.859H114.797V211.078H11.1094V188.859Z" fill="#6A7073"/>
<path d="M129.609 122.203H211.078C215.007 122.203 218.774 123.764 221.552 126.542C224.33 129.319 225.891 133.087 225.891 137.016V166.641H114.797V137.016C114.797 133.087 116.357 129.319 119.135 126.542C121.913 123.764 125.681 122.203 129.609 122.203Z" fill="#E9EEF2"/>
<path d="M170.344 11.1094C182.129 11.1094 193.432 15.7912 201.766 24.1248C210.099 32.4585 214.781 43.7613 214.781 55.5469V70.3594H125.906V55.5469C125.906 43.7613 130.588 32.4585 138.922 24.1248C147.255 15.7912 158.558 11.1094 170.344 11.1094Z" fill="#AD6643"/>
<path d="M140.719 85.1719C136.79 85.1719 133.023 83.6113 130.245 80.8334C127.467 78.0555 125.906 74.2879 125.906 70.3594C125.906 66.4309 127.467 62.6632 130.245 59.8854C133.023 57.1075 136.79 55.5469 140.719 55.5469H144.422V85.1719H140.719Z" fill="#EDC4A2"/>
<path d="M199.969 55.5469C203.897 55.5469 207.665 57.1075 210.443 59.8854C213.221 62.6632 214.781 66.4309 214.781 70.3594C214.781 74.2879 213.221 78.0555 210.443 80.8334C207.665 83.6113 203.897 85.1719 199.969 85.1719H196.266V55.5469H199.969Z" fill="#EDC4A2"/>
<path d="M159.234 99.9844H181.453V122.203C181.453 124.167 180.673 126.051 179.284 127.44C177.895 128.829 176.011 129.609 174.047 129.609H166.641C164.676 129.609 162.793 128.829 161.404 127.44C160.015 126.051 159.234 124.167 159.234 122.203V99.9844Z" fill="#EDC4A2"/>
<path d="M185.156 40.7344L140.719 55.5469V77.7656C140.719 85.6227 143.84 93.1579 149.396 98.7137C154.951 104.269 162.487 107.391 170.344 107.391C178.201 107.391 185.736 104.269 191.292 98.7137C196.848 93.1579 199.969 85.6227 199.969 77.7656V55.5469L185.156 40.7344Z" fill="#F7CCA9"/>
<path d="M137.016 159.234H203.672V211.078H137.016V159.234Z" fill="#EB423F"/>
<path d="M159.234 122.203H144.422L137.016 159.234H151.828L159.234 122.203Z" fill="#C7312E"/>
<path d="M114.797 166.641H137.016V211.078H114.797V166.641Z" fill="#F7CCA9"/>
<path d="M203.672 166.641H225.891V211.078H203.672V166.641Z" fill="#F7CCA9"/>
<path d="M196.266 122.203H181.453L188.859 159.234H203.672L196.266 122.203Z" fill="#C7312E"/>
<path d="M11.1094 229.594H225.891C226.873 229.594 227.815 229.204 228.509 228.509C229.204 227.815 229.594 226.873 229.594 225.891V137.016C229.59 133.414 228.537 129.892 226.564 126.88C224.591 123.867 221.784 121.494 218.484 120.051V55.5469C218.484 42.7792 213.412 30.5344 204.384 21.5063C195.356 12.4782 183.111 7.40625 170.344 7.40625C157.576 7.40625 145.331 12.4782 136.303 21.5063C127.275 30.5344 122.203 42.7792 122.203 55.5469V120.051C118.904 121.494 116.096 123.867 114.123 126.88C112.15 129.892 111.098 133.414 111.094 137.016V185.156H99.9844V166.641C99.9844 165.658 99.5942 164.717 98.8998 164.022C98.2053 163.328 97.2634 162.938 96.2812 162.938H51.8438V155.531H66.6562C67.6384 155.531 68.5803 155.141 69.2748 154.447C69.9692 153.752 70.3594 152.81 70.3594 151.828V129.609C70.3594 128.627 69.9692 127.685 69.2748 126.991C68.5803 126.296 67.6384 125.906 66.6562 125.906H29.625C28.6429 125.906 27.701 126.296 27.0065 126.991C26.312 127.685 25.9219 128.627 25.9219 129.609V151.828C25.9219 152.81 26.312 153.752 27.0065 154.447C27.701 155.141 28.6429 155.531 29.625 155.531H44.4375V162.938H29.625C28.6429 162.938 27.701 163.328 27.0065 164.022C26.312 164.717 25.9219 165.658 25.9219 166.641V185.156H11.1094C10.1272 185.156 9.18534 185.546 8.49087 186.241C7.7964 186.935 7.40625 187.877 7.40625 188.859V225.891C7.40625 226.873 7.7964 227.815 8.49087 228.509C9.18534 229.204 10.1272 229.594 11.1094 229.594ZM33.3281 133.312H62.9531V148.125H33.3281V133.312ZM222.188 222.188H14.8125V214.781H222.188V222.188ZM154.717 125.906L148.792 155.531H141.533L147.458 125.906H154.717ZM193.23 125.906L199.155 155.531H191.895L185.97 125.906H193.23ZM222.188 207.375H207.375V170.344H222.188V207.375ZM161.086 131.819C162.773 132.799 164.69 133.314 166.641 133.312H174.047C175.998 133.314 177.915 132.799 179.602 131.819L184.342 155.531H156.345L161.086 131.819ZM199.969 162.938V207.375H140.719V162.938H199.969ZM170.344 103.688C163.471 103.68 156.882 100.946 152.023 96.0865C147.163 91.2269 144.43 84.6381 144.422 77.7656V58.2159L184.156 44.9712L196.266 57.0804V77.7656C196.258 84.6381 193.524 91.2269 188.665 96.0865C183.805 100.946 177.216 103.68 170.344 103.688ZM170.344 111.094C172.836 111.092 175.32 110.81 177.75 110.254V122.203C177.749 123.185 177.358 124.126 176.664 124.82C175.97 125.515 175.029 125.905 174.047 125.906H166.641C165.659 125.905 164.718 125.515 164.023 124.82C163.329 124.126 162.939 123.185 162.938 122.203V110.254C165.367 110.81 167.851 111.092 170.344 111.094ZM133.312 207.375H118.5V170.344H133.312V207.375ZM222.188 137.016V162.938H207.375V159.234C207.375 158.99 207.351 158.747 207.303 158.508V158.502L207.298 158.477L200.783 125.906H211.078C214.023 125.91 216.847 127.081 218.93 129.164C221.013 131.246 222.184 134.07 222.188 137.016ZM185.156 118.5V107.609C192.934 103.729 198.899 96.9784 201.792 88.7824C205.161 88.4521 208.374 87.1993 211.078 85.1617V118.5H185.156ZM203.672 77.7656V59.8869C205.85 60.6568 207.735 62.0871 209.062 63.9784C210.39 65.8697 211.094 68.1279 211.077 70.4384C211.061 72.749 210.324 74.9969 208.97 76.869C207.615 78.7411 205.711 80.1441 203.521 80.8827C203.617 79.856 203.672 78.8173 203.672 77.7656ZM170.344 14.8125C181.143 14.8248 191.497 19.1203 199.134 26.7569C206.77 34.3934 211.066 44.7472 211.078 55.5469V55.5571C208.316 53.4759 205.023 52.2147 201.577 51.9178L187.775 38.1158C187.288 37.6295 186.676 37.2883 186.007 37.1304C185.338 36.9724 184.638 37.004 183.985 37.2215L140.071 51.8604C136.286 51.9878 132.634 53.2786 129.609 55.5571V55.5469C129.622 44.7472 133.917 34.3934 141.554 26.7569C149.19 19.1203 159.544 14.8248 170.344 14.8125ZM137.166 80.8827C134.977 80.1441 133.072 78.7411 131.718 76.869C130.363 74.9969 129.627 72.749 129.61 70.4384C129.593 68.1279 130.298 65.8697 131.625 63.9784C132.953 62.0871 134.837 60.6568 137.016 59.8869V77.7656C137.016 78.8173 137.071 79.856 137.166 80.8827ZM129.609 85.1617C132.313 87.2 135.526 88.4534 138.896 88.7843C141.789 96.9796 147.754 103.73 155.531 107.609V118.5H129.609V85.1617ZM129.609 125.906H139.905L133.391 158.477L133.386 158.502V158.508C133.338 158.747 133.313 158.99 133.312 159.234V162.938H118.5V137.016C118.503 134.07 119.675 131.246 121.758 129.164C123.84 127.081 126.664 125.91 129.609 125.906ZM33.3281 170.344H92.5781V185.156H33.3281V170.344ZM111.094 192.562V207.375H14.8125V192.562H111.094Z" fill="black"/>
<path d="M155.531 74.0625C157.576 74.0625 159.234 72.4046 159.234 70.3594C159.234 68.3142 157.576 66.6562 155.531 66.6562C153.486 66.6562 151.828 68.3142 151.828 70.3594C151.828 72.4046 153.486 74.0625 155.531 74.0625Z" fill="black"/>
<path d="M185.156 74.0625C187.201 74.0625 188.859 72.4046 188.859 70.3594C188.859 68.3142 187.201 66.6562 185.156 66.6562C183.111 66.6562 181.453 68.3142 181.453 70.3594C181.453 72.4046 183.111 74.0625 185.156 74.0625Z" fill="black"/>
</svg>
