<svg width="47" height="47" viewBox="0 0 47 47" fill="none" xmlns="http://www.w3.org/2000/svg">
<g clip-path="url(#clip0)">
<path d="M39.3659 6.7541C35.0105 2.39868 29.2194 0 23.06 0C16.9002 0 11.1095 2.39868 6.7541 6.7541C2.39868 11.1095 0 16.9002 0 23.06C0 29.2194 2.39868 35.0105 6.7541 39.3659C11.1095 43.7213 16.9002 46.12 23.06 46.12C29.2194 46.12 35.0105 43.7213 39.3659 39.3659C43.7213 35.0105 46.12 29.2194 46.12 23.06C46.12 16.9002 43.7213 11.1095 39.3659 6.7541ZM11.5606 39.8494C12.5251 34.2962 17.3372 30.2001 23.06 30.2001C28.7831 30.2001 33.5949 34.2962 34.5594 39.8494C31.2853 42.0989 27.3239 43.4177 23.06 43.4177C18.7961 43.4177 14.8347 42.0989 11.5606 39.8494ZM15.7278 20.1655C15.7278 16.1222 19.017 12.8333 23.06 12.8333C27.103 12.8333 30.3922 16.1226 30.3922 20.1655C30.3922 24.2085 27.103 27.4978 23.06 27.4978C19.017 27.4978 15.7278 24.2085 15.7278 20.1655ZM36.9 37.975C36.1727 35.3898 34.7283 33.0442 32.7036 31.2121C31.4615 30.0879 30.0477 29.2008 28.5277 28.5755C31.2751 26.7835 33.0949 23.6832 33.0949 20.1655C33.0949 14.6324 28.5931 10.131 23.06 10.131C17.5269 10.131 13.0254 14.6324 13.0254 20.1655C13.0254 23.6832 14.8453 26.7835 17.5923 28.5755C16.0726 29.2008 14.6585 30.0875 13.4164 31.2117C11.3921 33.0439 9.9473 35.3894 9.21999 37.9746C5.21397 34.2543 2.70234 28.9453 2.70234 23.06C2.70234 11.8347 11.8347 2.70234 23.06 2.70234C34.2853 2.70234 43.4177 11.8347 43.4177 23.06C43.4177 28.9457 40.906 34.2547 36.9 37.975Z" fill="#25B93D"/>
</g>
<defs>
<clipPath id="clip0">
<rect width="46.12" height="46.12" fill="white"/>
</clipPath>
</defs>
</svg>
